<svg width="1800" height="656" viewBox="0 0 1800 656" fill="none" xmlns="http://www.w3.org/2000/svg">
<rect width="1800" height="656" fill="#EFEFEF"/>
<path d="M818.062 384.75V385.609C818.062 386.791 817.908 387.851 817.6 388.789C817.292 389.727 816.851 390.526 816.278 391.185C815.713 391.843 815.032 392.348 814.237 392.699C813.442 393.043 812.562 393.215 811.595 393.215C810.635 393.215 809.758 393.043 808.963 392.699C808.175 392.348 807.491 391.843 806.911 391.185C806.331 390.526 805.88 389.727 805.558 388.789C805.243 387.851 805.085 386.791 805.085 385.609V384.75C805.085 383.568 805.243 382.512 805.558 381.581C805.873 380.643 806.317 379.844 806.89 379.186C807.47 378.52 808.154 378.015 808.941 377.671C809.736 377.32 810.614 377.145 811.573 377.145C812.54 377.145 813.421 377.32 814.216 377.671C815.011 378.015 815.695 378.52 816.268 379.186C816.84 379.844 817.281 380.643 817.589 381.581C817.904 382.512 818.062 383.568 818.062 384.75ZM815.365 385.609V384.729C815.365 383.855 815.279 383.085 815.107 382.419C814.943 381.746 814.696 381.184 814.366 380.732C814.044 380.274 813.646 379.93 813.174 379.701C812.701 379.465 812.168 379.347 811.573 379.347C810.979 379.347 810.449 379.465 809.983 379.701C809.518 379.93 809.12 380.274 808.791 380.732C808.469 381.184 808.222 381.746 808.05 382.419C807.878 383.085 807.792 383.855 807.792 384.729V385.609C807.792 386.483 807.878 387.257 808.05 387.93C808.222 388.603 808.472 389.172 808.802 389.638C809.138 390.096 809.539 390.443 810.005 390.68C810.47 390.909 811 391.023 811.595 391.023C812.196 391.023 812.73 390.909 813.195 390.68C813.661 390.443 814.055 390.096 814.377 389.638C814.699 389.172 814.943 388.603 815.107 387.93C815.279 387.257 815.365 386.483 815.365 385.609ZM827.794 376.285H829.889C829.889 376.923 829.799 377.449 829.62 377.864C829.448 378.272 829.19 378.609 828.847 378.874C828.51 379.132 828.091 379.34 827.59 379.497C827.096 379.655 826.523 379.798 825.871 379.927C825.27 380.056 824.725 380.26 824.238 380.539C823.758 380.811 823.354 381.194 823.024 381.688C822.702 382.175 822.469 382.802 822.326 383.568C822.183 384.335 822.14 385.269 822.197 386.372V387.103L820.146 387.285V386.555C820.146 385.187 820.271 383.994 820.521 382.978C820.772 381.961 821.127 381.105 821.585 380.41C822.05 379.708 822.602 379.15 823.239 378.734C823.884 378.319 824.6 378.033 825.388 377.875C825.925 377.76 826.372 377.646 826.73 377.531C827.089 377.41 827.354 377.256 827.525 377.069C827.704 376.876 827.794 376.615 827.794 376.285ZM825.979 382.032C826.752 382.032 827.439 382.168 828.041 382.44C828.643 382.705 829.151 383.078 829.566 383.558C829.982 384.037 830.297 384.603 830.512 385.255C830.734 385.907 830.845 386.616 830.845 387.382V387.618C830.845 388.42 830.727 389.161 830.49 389.842C830.254 390.522 829.907 391.117 829.448 391.625C828.99 392.126 828.428 392.52 827.762 392.807C827.103 393.086 826.347 393.226 825.495 393.226C824.65 393.226 823.895 393.079 823.229 392.785C822.562 392.492 822 392.083 821.542 391.561C821.084 391.031 820.736 390.411 820.5 389.702C820.264 388.993 820.146 388.22 820.146 387.382V387.146C820.138 386.995 820.178 386.848 820.264 386.705C820.357 386.562 820.468 386.408 820.597 386.243C820.726 386.078 820.84 385.889 820.94 385.674C821.299 384.951 821.721 384.317 822.208 383.772C822.695 383.228 823.25 382.802 823.873 382.494C824.503 382.186 825.205 382.032 825.979 382.032ZM825.474 384.084C824.829 384.084 824.303 384.238 823.895 384.546C823.493 384.847 823.196 385.248 823.003 385.749C822.817 386.25 822.724 386.795 822.724 387.382V387.618C822.724 388.098 822.777 388.553 822.885 388.982C822.992 389.412 823.153 389.792 823.368 390.121C823.59 390.443 823.877 390.698 824.228 390.884C824.586 391.07 825.008 391.163 825.495 391.163C825.989 391.163 826.408 391.07 826.752 390.884C827.103 390.698 827.386 390.443 827.601 390.121C827.823 389.792 827.984 389.412 828.084 388.982C828.191 388.553 828.245 388.098 828.245 387.618V387.382C828.245 386.938 828.191 386.519 828.084 386.125C827.984 385.731 827.823 385.384 827.601 385.083C827.379 384.775 827.092 384.532 826.741 384.353C826.39 384.174 825.968 384.084 825.474 384.084ZM837.494 381.377V383.439H831.887V381.377H837.494ZM837 385.072H840.416C841.426 385.072 842.278 385.241 842.973 385.577C843.674 385.914 844.208 386.383 844.573 386.984C844.946 387.579 845.132 388.259 845.132 389.025C845.132 389.591 845.028 390.118 844.82 390.604C844.613 391.084 844.308 391.503 843.907 391.861C843.506 392.219 843.012 392.499 842.425 392.699C841.838 392.9 841.168 393 840.416 393H835.271V381.377H837.87V390.948H840.416C840.932 390.948 841.343 390.859 841.651 390.68C841.959 390.501 842.181 390.268 842.317 389.981C842.461 389.695 842.532 389.391 842.532 389.068C842.532 388.739 842.461 388.427 842.317 388.134C842.181 387.84 841.959 387.6 841.651 387.414C841.343 387.228 840.932 387.135 840.416 387.135H837V385.072ZM849.439 387.317H852.125L848.827 393H846.152L849.439 387.317ZM851.33 381.377H856.314V393H853.736V383.418H851.33C850.843 383.418 850.442 383.504 850.127 383.676C849.812 383.84 849.579 384.059 849.429 384.331C849.278 384.596 849.203 384.868 849.203 385.147C849.203 385.427 849.271 385.695 849.407 385.953C849.55 386.211 849.769 386.422 850.062 386.587C850.363 386.752 850.739 386.834 851.19 386.834H854.606V388.725H851.19C850.474 388.725 849.833 388.635 849.268 388.456C848.702 388.27 848.222 388.016 847.828 387.693C847.434 387.364 847.133 386.981 846.926 386.544C846.718 386.1 846.614 385.617 846.614 385.094C846.614 384.557 846.722 384.062 846.937 383.611C847.151 383.16 847.459 382.766 847.86 382.43C848.269 382.093 848.763 381.835 849.343 381.656C849.93 381.47 850.592 381.377 851.33 381.377ZM864.844 388.026H861.127L861.105 386.2H864.156C864.658 386.2 865.069 386.15 865.392 386.05C865.721 385.95 865.965 385.799 866.122 385.599C866.28 385.391 866.358 385.14 866.358 384.847C866.358 384.603 866.312 384.392 866.219 384.213C866.126 384.027 865.982 383.876 865.789 383.762C865.603 383.64 865.367 383.554 865.08 383.504C864.801 383.447 864.475 383.418 864.103 383.418H861.986V393H859.397V381.377H864.103C864.847 381.377 865.517 381.441 866.111 381.57C866.713 381.699 867.225 381.896 867.647 382.161C868.07 382.426 868.392 382.763 868.614 383.171C868.843 383.572 868.958 384.045 868.958 384.589C868.958 384.947 868.879 385.284 868.722 385.599C868.571 385.914 868.346 386.193 868.045 386.437C867.744 386.68 867.375 386.881 866.938 387.038C866.502 387.188 866 387.282 865.435 387.317L864.844 388.026ZM864.844 393H860.375L861.406 390.959H864.844C865.302 390.959 865.682 390.902 865.982 390.787C866.283 390.673 866.505 390.508 866.648 390.293C866.799 390.071 866.874 389.81 866.874 389.509C866.874 389.201 866.802 388.936 866.659 388.714C866.516 388.492 866.294 388.324 865.993 388.209C865.7 388.087 865.316 388.026 864.844 388.026H861.89L861.911 386.2H865.424L866.165 386.909C866.903 386.959 867.515 387.117 868.002 387.382C868.489 387.647 868.854 387.98 869.098 388.381C869.341 388.782 869.463 389.219 869.463 389.691C869.463 390.236 869.359 390.715 869.151 391.131C868.951 391.546 868.65 391.894 868.249 392.173C867.855 392.445 867.372 392.653 866.799 392.796C866.226 392.932 865.574 393 864.844 393ZM879.507 381.377V383.439H873.835V381.377H879.507ZM881.537 381.377V393H878.948V381.377H881.537ZM873.201 381.377H875.758L875.446 387.124C875.403 387.976 875.317 388.728 875.188 389.38C875.067 390.024 874.902 390.579 874.694 391.045C874.487 391.503 874.232 391.876 873.932 392.162C873.631 392.449 873.28 392.66 872.879 392.796C872.478 392.932 872.027 393 871.525 393H870.72L870.709 390.873L871.117 390.841C871.382 390.819 871.611 390.751 871.805 390.637C871.998 390.515 872.163 390.343 872.299 390.121C872.442 389.899 872.557 389.613 872.643 389.262C872.736 388.911 872.807 388.495 872.857 388.016C872.915 387.536 872.958 386.977 872.986 386.34L873.201 381.377ZM889.411 393.215C888.552 393.215 887.775 393.075 887.08 392.796C886.393 392.509 885.805 392.112 885.318 391.604C884.839 391.095 884.47 390.497 884.212 389.81C883.954 389.122 883.825 388.381 883.825 387.586V387.156C883.825 386.247 883.958 385.423 884.223 384.686C884.488 383.948 884.856 383.318 885.329 382.795C885.802 382.265 886.36 381.86 887.005 381.581C887.649 381.302 888.348 381.162 889.1 381.162C889.93 381.162 890.657 381.302 891.28 381.581C891.903 381.86 892.419 382.254 892.827 382.763C893.243 383.264 893.55 383.862 893.751 384.557C893.959 385.251 894.062 386.018 894.062 386.855V387.962H885.082V386.104H891.506V385.899C891.492 385.434 891.398 384.997 891.227 384.589C891.062 384.181 890.808 383.851 890.464 383.601C890.12 383.35 889.662 383.225 889.089 383.225C888.659 383.225 888.276 383.318 887.939 383.504C887.61 383.683 887.334 383.944 887.112 384.288C886.89 384.632 886.718 385.047 886.597 385.534C886.482 386.014 886.425 386.555 886.425 387.156V387.586C886.425 388.094 886.493 388.567 886.629 389.004C886.772 389.434 886.98 389.81 887.252 390.132C887.524 390.454 887.854 390.708 888.24 390.895C888.627 391.074 889.067 391.163 889.562 391.163C890.185 391.163 890.74 391.038 891.227 390.787C891.714 390.536 892.136 390.182 892.494 389.724L893.858 391.045C893.608 391.41 893.282 391.761 892.881 392.098C892.48 392.427 891.989 392.696 891.409 392.903C890.836 393.111 890.17 393.215 889.411 393.215ZM904.021 386.232V388.273H898.005V386.232H904.021ZM898.757 381.377V393H896.168V381.377H898.757ZM905.89 381.377V393H903.301V381.377H905.89ZM911.325 389.219L915.891 381.377H918.479V393H915.891V385.147L911.325 393H908.736V381.377H911.325V389.219ZM923.894 389.219L928.459 381.377H931.048V393H928.459V385.147L923.894 393H921.305V381.377H923.894V389.219ZM927.771 376.908H929.694C929.694 377.503 929.551 378.029 929.265 378.487C928.985 378.938 928.584 379.293 928.062 379.551C927.546 379.809 926.93 379.938 926.214 379.938C925.132 379.938 924.277 379.658 923.646 379.1C923.023 378.534 922.712 377.803 922.712 376.908H924.635C924.635 377.309 924.753 377.664 924.989 377.972C925.233 378.272 925.641 378.423 926.214 378.423C926.78 378.423 927.181 378.272 927.417 377.972C927.653 377.664 927.771 377.309 927.771 376.908ZM947.204 386.232V388.273H941.188V386.232H947.204ZM941.94 381.377V393H939.352V381.377H941.94ZM949.073 381.377V393H946.484V381.377H949.073ZM956.958 393.215C956.099 393.215 955.322 393.075 954.627 392.796C953.939 392.509 953.352 392.112 952.865 391.604C952.385 391.095 952.017 390.497 951.759 389.81C951.501 389.122 951.372 388.381 951.372 387.586V387.156C951.372 386.247 951.505 385.423 951.77 384.686C952.035 383.948 952.403 383.318 952.876 382.795C953.349 382.265 953.907 381.86 954.552 381.581C955.196 381.302 955.895 381.162 956.646 381.162C957.477 381.162 958.204 381.302 958.827 381.581C959.45 381.86 959.966 382.254 960.374 382.763C960.789 383.264 961.097 383.862 961.298 384.557C961.506 385.251 961.609 386.018 961.609 386.855V387.962H952.629V386.104H959.053V385.899C959.038 385.434 958.945 384.997 958.773 384.589C958.609 384.181 958.354 383.851 958.011 383.601C957.667 383.35 957.209 383.225 956.636 383.225C956.206 383.225 955.823 383.318 955.486 383.504C955.157 383.683 954.881 383.944 954.659 384.288C954.437 384.632 954.265 385.047 954.144 385.534C954.029 386.014 953.972 386.555 953.972 387.156V387.586C953.972 388.094 954.04 388.567 954.176 389.004C954.319 389.434 954.527 389.81 954.799 390.132C955.071 390.454 955.4 390.708 955.787 390.895C956.174 391.074 956.614 391.163 957.108 391.163C957.731 391.163 958.286 391.038 958.773 390.787C959.26 390.536 959.683 390.182 960.041 389.724L961.405 391.045C961.155 391.41 960.829 391.761 960.428 392.098C960.027 392.427 959.536 392.696 958.956 392.903C958.383 393.111 957.717 393.215 956.958 393.215ZM968.893 381.377V393H966.293V381.377H968.893ZM972.706 381.377V383.418H962.544V381.377H972.706ZM980.021 391.711C980.021 391.31 980.158 390.973 980.43 390.701C980.702 390.422 981.071 390.282 981.536 390.282C982.009 390.282 982.378 390.422 982.643 390.701C982.915 390.973 983.051 391.31 983.051 391.711C983.051 392.112 982.915 392.449 982.643 392.721C982.378 392.993 982.009 393.129 981.536 393.129C981.071 393.129 980.702 392.993 980.43 392.721C980.158 392.449 980.021 392.112 980.021 391.711ZM986.145 391.711C986.145 391.31 986.281 390.973 986.553 390.701C986.825 390.422 987.194 390.282 987.659 390.282C988.132 390.282 988.501 390.422 988.766 390.701C989.038 390.973 989.174 391.31 989.174 391.711C989.174 392.112 989.038 392.449 988.766 392.721C988.501 392.993 988.132 393.129 987.659 393.129C987.194 393.129 986.825 392.993 986.553 392.721C986.281 392.449 986.145 392.112 986.145 391.711ZM992.268 391.711C992.268 391.31 992.404 390.973 992.676 390.701C992.948 390.422 993.317 390.282 993.782 390.282C994.255 390.282 994.624 390.422 994.889 390.701C995.161 390.973 995.297 391.31 995.297 391.711C995.297 392.112 995.161 392.449 994.889 392.721C994.624 392.993 994.255 393.129 993.782 393.129C993.317 393.129 992.948 392.993 992.676 392.721C992.404 392.449 992.268 392.112 992.268 391.711Z" fill="#CACACA"/>
<rect x="858.326" y="260.747" width="63" height="64" rx="5.5" transform="rotate(10.4236 858.326 260.747)" fill="#EFEFEF" stroke="#CACACA" stroke-width="3"/>
<circle cx="883.432" cy="298.432" r="18.5" transform="rotate(30.8969 883.432 298.432)" stroke="#CACACA" stroke-width="3"/>
<path d="M879.833 290.487L883.432 298.432M887.03 306.377L883.432 298.432M883.432 298.432L891.377 294.833M883.432 298.432L875.487 302.03" stroke="#CACACA" stroke-width="3" stroke-linecap="round" stroke-linejoin="round"/>
<rect x="876.822" y="288.276" width="63" height="64" rx="5.5" transform="rotate(-14.1994 876.822 288.276)" fill="#EFEFEF" stroke="#CACACA" stroke-width="3"/>
<circle cx="915.249" cy="311.222" r="18.5" transform="rotate(-5.00159 915.249 311.222)" stroke="#CACACA" stroke-width="3"/>
<path d="M907.675 306.897L915.249 311.222M922.822 315.548L915.249 311.222M915.249 311.222L919.575 303.649M915.249 311.222L910.923 318.796" stroke="#CACACA" stroke-width="3" stroke-linecap="round" stroke-linejoin="round"/>
</svg>
