<svg width="400" height="656" viewBox="0 0 400 656" fill="none" xmlns="http://www.w3.org/2000/svg">
<rect width="400" height="656" fill="#EFEFEF"/>
<path d="M118.062 368.75V369.609C118.062 370.791 117.908 371.851 117.6 372.789C117.292 373.727 116.851 374.526 116.278 375.185C115.713 375.843 115.032 376.348 114.237 376.699C113.442 377.043 112.562 377.215 111.595 377.215C110.635 377.215 109.758 377.043 108.963 376.699C108.175 376.348 107.491 375.843 106.911 375.185C106.331 374.526 105.88 373.727 105.558 372.789C105.243 371.851 105.085 370.791 105.085 369.609V368.75C105.085 367.568 105.243 366.512 105.558 365.581C105.873 364.643 106.317 363.844 106.89 363.186C107.47 362.52 108.154 362.015 108.941 361.671C109.736 361.32 110.614 361.145 111.573 361.145C112.54 361.145 113.421 361.32 114.216 361.671C115.011 362.015 115.695 362.52 116.268 363.186C116.84 363.844 117.281 364.643 117.589 365.581C117.904 366.512 118.062 367.568 118.062 368.75ZM115.365 369.609V368.729C115.365 367.855 115.279 367.085 115.107 366.419C114.943 365.746 114.696 365.184 114.366 364.732C114.044 364.274 113.646 363.93 113.174 363.701C112.701 363.465 112.168 363.347 111.573 363.347C110.979 363.347 110.449 363.465 109.983 363.701C109.518 363.93 109.12 364.274 108.791 364.732C108.469 365.184 108.222 365.746 108.05 366.419C107.878 367.085 107.792 367.855 107.792 368.729V369.609C107.792 370.483 107.878 371.257 108.05 371.93C108.222 372.603 108.472 373.172 108.802 373.638C109.138 374.096 109.539 374.443 110.005 374.68C110.47 374.909 111 375.023 111.595 375.023C112.196 375.023 112.73 374.909 113.195 374.68C113.661 374.443 114.055 374.096 114.377 373.638C114.699 373.172 114.943 372.603 115.107 371.93C115.279 371.257 115.365 370.483 115.365 369.609ZM127.794 360.285H129.889C129.889 360.923 129.799 361.449 129.62 361.864C129.448 362.272 129.19 362.609 128.847 362.874C128.51 363.132 128.091 363.34 127.59 363.497C127.096 363.655 126.523 363.798 125.871 363.927C125.27 364.056 124.725 364.26 124.238 364.539C123.758 364.811 123.354 365.194 123.024 365.688C122.702 366.175 122.469 366.802 122.326 367.568C122.183 368.335 122.14 369.269 122.197 370.372V371.103L120.146 371.285V370.555C120.146 369.187 120.271 367.994 120.521 366.978C120.772 365.961 121.127 365.105 121.585 364.41C122.05 363.708 122.602 363.15 123.239 362.734C123.884 362.319 124.6 362.033 125.388 361.875C125.925 361.76 126.372 361.646 126.73 361.531C127.089 361.41 127.354 361.256 127.525 361.069C127.704 360.876 127.794 360.615 127.794 360.285ZM125.979 366.032C126.752 366.032 127.439 366.168 128.041 366.44C128.643 366.705 129.151 367.078 129.566 367.558C129.982 368.037 130.297 368.603 130.512 369.255C130.734 369.907 130.845 370.616 130.845 371.382V371.618C130.845 372.42 130.727 373.161 130.49 373.842C130.254 374.522 129.907 375.117 129.448 375.625C128.99 376.126 128.428 376.52 127.762 376.807C127.103 377.086 126.347 377.226 125.495 377.226C124.65 377.226 123.895 377.079 123.229 376.785C122.562 376.492 122 376.083 121.542 375.561C121.084 375.031 120.736 374.411 120.5 373.702C120.264 372.993 120.146 372.22 120.146 371.382V371.146C120.138 370.995 120.178 370.848 120.264 370.705C120.357 370.562 120.468 370.408 120.597 370.243C120.726 370.078 120.84 369.889 120.94 369.674C121.299 368.951 121.721 368.317 122.208 367.772C122.695 367.228 123.25 366.802 123.873 366.494C124.503 366.186 125.205 366.032 125.979 366.032ZM125.474 368.084C124.829 368.084 124.303 368.238 123.895 368.546C123.493 368.847 123.196 369.248 123.003 369.749C122.817 370.25 122.724 370.795 122.724 371.382V371.618C122.724 372.098 122.777 372.553 122.885 372.982C122.992 373.412 123.153 373.792 123.368 374.121C123.59 374.443 123.877 374.698 124.228 374.884C124.586 375.07 125.008 375.163 125.495 375.163C125.989 375.163 126.408 375.07 126.752 374.884C127.103 374.698 127.386 374.443 127.601 374.121C127.823 373.792 127.984 373.412 128.084 372.982C128.191 372.553 128.245 372.098 128.245 371.618V371.382C128.245 370.938 128.191 370.519 128.084 370.125C127.984 369.731 127.823 369.384 127.601 369.083C127.379 368.775 127.092 368.532 126.741 368.353C126.39 368.174 125.968 368.084 125.474 368.084ZM137.494 365.377V367.439H131.887V365.377H137.494ZM137 369.072H140.416C141.426 369.072 142.278 369.241 142.973 369.577C143.674 369.914 144.208 370.383 144.573 370.984C144.946 371.579 145.132 372.259 145.132 373.025C145.132 373.591 145.028 374.118 144.82 374.604C144.613 375.084 144.308 375.503 143.907 375.861C143.506 376.219 143.012 376.499 142.425 376.699C141.838 376.9 141.168 377 140.416 377H135.271V365.377H137.87V374.948H140.416C140.932 374.948 141.343 374.859 141.651 374.68C141.959 374.501 142.181 374.268 142.317 373.981C142.461 373.695 142.532 373.391 142.532 373.068C142.532 372.739 142.461 372.427 142.317 372.134C142.181 371.84 141.959 371.6 141.651 371.414C141.343 371.228 140.932 371.135 140.416 371.135H137V369.072ZM149.439 371.317H152.125L148.827 377H146.152L149.439 371.317ZM151.33 365.377H156.314V377H153.736V367.418H151.33C150.843 367.418 150.442 367.504 150.127 367.676C149.812 367.84 149.579 368.059 149.429 368.331C149.278 368.596 149.203 368.868 149.203 369.147C149.203 369.427 149.271 369.695 149.407 369.953C149.55 370.211 149.769 370.422 150.062 370.587C150.363 370.752 150.739 370.834 151.19 370.834H154.606V372.725H151.19C150.474 372.725 149.833 372.635 149.268 372.456C148.702 372.27 148.222 372.016 147.828 371.693C147.434 371.364 147.133 370.981 146.926 370.544C146.718 370.1 146.614 369.617 146.614 369.094C146.614 368.557 146.722 368.062 146.937 367.611C147.151 367.16 147.459 366.766 147.86 366.43C148.269 366.093 148.763 365.835 149.343 365.656C149.93 365.47 150.592 365.377 151.33 365.377ZM164.844 372.026H161.127L161.105 370.2H164.156C164.658 370.2 165.069 370.15 165.392 370.05C165.721 369.95 165.965 369.799 166.122 369.599C166.28 369.391 166.358 369.14 166.358 368.847C166.358 368.603 166.312 368.392 166.219 368.213C166.126 368.027 165.982 367.876 165.789 367.762C165.603 367.64 165.367 367.554 165.08 367.504C164.801 367.447 164.475 367.418 164.103 367.418H161.986V377H159.397V365.377H164.103C164.847 365.377 165.517 365.441 166.111 365.57C166.713 365.699 167.225 365.896 167.647 366.161C168.07 366.426 168.392 366.763 168.614 367.171C168.843 367.572 168.958 368.045 168.958 368.589C168.958 368.947 168.879 369.284 168.722 369.599C168.571 369.914 168.346 370.193 168.045 370.437C167.744 370.68 167.375 370.881 166.938 371.038C166.502 371.188 166 371.282 165.435 371.317L164.844 372.026ZM164.844 377H160.375L161.406 374.959H164.844C165.302 374.959 165.682 374.902 165.982 374.787C166.283 374.673 166.505 374.508 166.648 374.293C166.799 374.071 166.874 373.81 166.874 373.509C166.874 373.201 166.802 372.936 166.659 372.714C166.516 372.492 166.294 372.324 165.993 372.209C165.7 372.087 165.316 372.026 164.844 372.026H161.89L161.911 370.2H165.424L166.165 370.909C166.903 370.959 167.515 371.117 168.002 371.382C168.489 371.647 168.854 371.98 169.098 372.381C169.341 372.782 169.463 373.219 169.463 373.691C169.463 374.236 169.359 374.715 169.151 375.131C168.951 375.546 168.65 375.894 168.249 376.173C167.855 376.445 167.372 376.653 166.799 376.796C166.226 376.932 165.574 377 164.844 377ZM179.507 365.377V367.439H173.835V365.377H179.507ZM181.537 365.377V377H178.948V365.377H181.537ZM173.201 365.377H175.758L175.446 371.124C175.403 371.976 175.317 372.728 175.188 373.38C175.067 374.024 174.902 374.579 174.694 375.045C174.487 375.503 174.232 375.876 173.932 376.162C173.631 376.449 173.28 376.66 172.879 376.796C172.478 376.932 172.027 377 171.525 377H170.72L170.709 374.873L171.117 374.841C171.382 374.819 171.611 374.751 171.805 374.637C171.998 374.515 172.163 374.343 172.299 374.121C172.442 373.899 172.557 373.613 172.643 373.262C172.736 372.911 172.807 372.495 172.857 372.016C172.915 371.536 172.958 370.977 172.986 370.34L173.201 365.377ZM189.411 377.215C188.552 377.215 187.775 377.075 187.08 376.796C186.393 376.509 185.805 376.112 185.318 375.604C184.839 375.095 184.47 374.497 184.212 373.81C183.954 373.122 183.825 372.381 183.825 371.586V371.156C183.825 370.247 183.958 369.423 184.223 368.686C184.488 367.948 184.856 367.318 185.329 366.795C185.802 366.265 186.36 365.86 187.005 365.581C187.649 365.302 188.348 365.162 189.1 365.162C189.93 365.162 190.657 365.302 191.28 365.581C191.903 365.86 192.419 366.254 192.827 366.763C193.243 367.264 193.55 367.862 193.751 368.557C193.959 369.251 194.062 370.018 194.062 370.855V371.962H185.082V370.104H191.506V369.899C191.492 369.434 191.398 368.997 191.227 368.589C191.062 368.181 190.808 367.851 190.464 367.601C190.12 367.35 189.662 367.225 189.089 367.225C188.659 367.225 188.276 367.318 187.939 367.504C187.61 367.683 187.334 367.944 187.112 368.288C186.89 368.632 186.718 369.047 186.597 369.534C186.482 370.014 186.425 370.555 186.425 371.156V371.586C186.425 372.094 186.493 372.567 186.629 373.004C186.772 373.434 186.98 373.81 187.252 374.132C187.524 374.454 187.854 374.708 188.24 374.895C188.627 375.074 189.067 375.163 189.562 375.163C190.185 375.163 190.74 375.038 191.227 374.787C191.714 374.536 192.136 374.182 192.494 373.724L193.858 375.045C193.608 375.41 193.282 375.761 192.881 376.098C192.48 376.427 191.989 376.696 191.409 376.903C190.836 377.111 190.17 377.215 189.411 377.215ZM204.021 370.232V372.273H198.005V370.232H204.021ZM198.757 365.377V377H196.168V365.377H198.757ZM205.89 365.377V377H203.301V365.377H205.89ZM211.325 373.219L215.891 365.377H218.479V377H215.891V369.147L211.325 377H208.736V365.377H211.325V373.219ZM223.894 373.219L228.459 365.377H231.048V377H228.459V369.147L223.894 377H221.305V365.377H223.894V373.219ZM227.771 360.908H229.694C229.694 361.503 229.551 362.029 229.265 362.487C228.985 362.938 228.584 363.293 228.062 363.551C227.546 363.809 226.93 363.938 226.214 363.938C225.132 363.938 224.277 363.658 223.646 363.1C223.023 362.534 222.712 361.803 222.712 360.908H224.635C224.635 361.309 224.753 361.664 224.989 361.972C225.233 362.272 225.641 362.423 226.214 362.423C226.78 362.423 227.181 362.272 227.417 361.972C227.653 361.664 227.771 361.309 227.771 360.908ZM247.204 370.232V372.273H241.188V370.232H247.204ZM241.94 365.377V377H239.352V365.377H241.94ZM249.073 365.377V377H246.484V365.377H249.073ZM256.958 377.215C256.099 377.215 255.322 377.075 254.627 376.796C253.939 376.509 253.352 376.112 252.865 375.604C252.385 375.095 252.017 374.497 251.759 373.81C251.501 373.122 251.372 372.381 251.372 371.586V371.156C251.372 370.247 251.505 369.423 251.77 368.686C252.035 367.948 252.403 367.318 252.876 366.795C253.349 366.265 253.907 365.86 254.552 365.581C255.196 365.302 255.895 365.162 256.646 365.162C257.477 365.162 258.204 365.302 258.827 365.581C259.45 365.86 259.966 366.254 260.374 366.763C260.789 367.264 261.097 367.862 261.298 368.557C261.506 369.251 261.609 370.018 261.609 370.855V371.962H252.629V370.104H259.053V369.899C259.038 369.434 258.945 368.997 258.773 368.589C258.609 368.181 258.354 367.851 258.011 367.601C257.667 367.35 257.209 367.225 256.636 367.225C256.206 367.225 255.823 367.318 255.486 367.504C255.157 367.683 254.881 367.944 254.659 368.288C254.437 368.632 254.265 369.047 254.144 369.534C254.029 370.014 253.972 370.555 253.972 371.156V371.586C253.972 372.094 254.04 372.567 254.176 373.004C254.319 373.434 254.527 373.81 254.799 374.132C255.071 374.454 255.4 374.708 255.787 374.895C256.174 375.074 256.614 375.163 257.108 375.163C257.731 375.163 258.286 375.038 258.773 374.787C259.26 374.536 259.683 374.182 260.041 373.724L261.405 375.045C261.155 375.41 260.829 375.761 260.428 376.098C260.027 376.427 259.536 376.696 258.956 376.903C258.383 377.111 257.717 377.215 256.958 377.215ZM268.893 365.377V377H266.293V365.377H268.893ZM272.706 365.377V367.418H262.544V365.377H272.706ZM280.021 375.711C280.021 375.31 280.158 374.973 280.43 374.701C280.702 374.422 281.071 374.282 281.536 374.282C282.009 374.282 282.378 374.422 282.643 374.701C282.915 374.973 283.051 375.31 283.051 375.711C283.051 376.112 282.915 376.449 282.643 376.721C282.378 376.993 282.009 377.129 281.536 377.129C281.071 377.129 280.702 376.993 280.43 376.721C280.158 376.449 280.021 376.112 280.021 375.711ZM286.145 375.711C286.145 375.31 286.281 374.973 286.553 374.701C286.825 374.422 287.194 374.282 287.659 374.282C288.132 374.282 288.501 374.422 288.766 374.701C289.038 374.973 289.174 375.31 289.174 375.711C289.174 376.112 289.038 376.449 288.766 376.721C288.501 376.993 288.132 377.129 287.659 377.129C287.194 377.129 286.825 376.993 286.553 376.721C286.281 376.449 286.145 376.112 286.145 375.711ZM292.268 375.711C292.268 375.31 292.404 374.973 292.676 374.701C292.948 374.422 293.317 374.282 293.782 374.282C294.255 374.282 294.624 374.422 294.889 374.701C295.161 374.973 295.297 375.31 295.297 375.711C295.297 376.112 295.161 376.449 294.889 376.721C294.624 376.993 294.255 377.129 293.782 377.129C293.317 377.129 292.948 376.993 292.676 376.721C292.404 376.449 292.268 376.112 292.268 375.711Z" fill="#CACACA"/>
<rect x="158.326" y="244.747" width="63" height="64" rx="5.5" transform="rotate(10.4236 158.326 244.747)" fill="#EFEFEF" stroke="#CACACA" stroke-width="3"/>
<circle cx="183.432" cy="282.432" r="18.5" transform="rotate(30.8969 183.432 282.432)" stroke="#CACACA" stroke-width="3"/>
<path d="M179.833 274.487L183.432 282.432M187.03 290.377L183.432 282.432M183.432 282.432L191.377 278.833M183.432 282.432L175.487 286.03" stroke="#CACACA" stroke-width="3" stroke-linecap="round" stroke-linejoin="round"/>
<rect x="176.822" y="272.276" width="63" height="64" rx="5.5" transform="rotate(-14.1994 176.822 272.276)" fill="#EFEFEF" stroke="#CACACA" stroke-width="3"/>
<circle cx="215.249" cy="295.222" r="18.5" transform="rotate(-5.00159 215.249 295.222)" stroke="#CACACA" stroke-width="3"/>
<path d="M207.675 290.897L215.249 295.223M222.822 299.548L215.249 295.223M215.249 295.223L219.575 287.649M215.249 295.223L210.923 302.796" stroke="#CACACA" stroke-width="3" stroke-linecap="round" stroke-linejoin="round"/>
</svg>
