<svg width="65" height="65" viewBox="0 0 65 65" fill="none" xmlns="http://www.w3.org/2000/svg">
<rect x="0.923077" y="0.923077" width="63.1538" height="63.1538" rx="8.30769" fill="white" stroke="#F5F5F5" stroke-width="1.84615"/>
<path d="M22.125 28.2158V26.7771H25.9636V28.5479L22.125 28.2158Z" fill="#673011"/>
<path d="M30.2968 19.2513C29.0567 19.2721 28.7561 19.4198 28.5625 19.8049" stroke="black" stroke-width="0.923077"/>
<path d="M39.5844 22.9036C39.8507 24.313 39.5917 24.9002 38.5938 25.6704" stroke="black" stroke-width="0.923077"/>
<path d="M23.7344 43.1571H26.0704H38.611H41.0699V50.4617H23.7344V43.1571Z" fill="#673011"/>
<path d="M22 26.7771V21.1327L38.5926 17.7018V41.0542H41.0691L41.1929 48.4694H23.7336L23.6097 41.0542H25.9624V26.7771H22Z" fill="#FFDA8A"/>
<path d="M30.1719 19.2512L40.5732 8.84778H40.9447L39.5826 22.9035L30.1719 19.2512Z" fill="#BDA2E5"/>
<mask id="mask0_211_6985" style="mask-type:alpha" maskUnits="userSpaceOnUse" x="30" y="8" width="11" height="15">
<path d="M30.1719 19.2512L40.5732 8.84778H40.9447L39.5826 22.9035L30.1719 19.2512Z" fill="#BDA2E5"/>
</mask>
<g mask="url(#mask0_211_6985)">
<ellipse cx="34.7527" cy="15.3777" rx="1.36208" ry="1.21742" fill="#8E78C1"/>
<ellipse cx="38.7156" cy="14.0495" rx="1.36208" ry="1.21742" fill="#8E78C1"/>
<ellipse cx="38.2215" cy="10.7294" rx="1.36208" ry="1.21742" fill="#8E78C1"/>
<ellipse cx="41.6863" cy="10.7294" rx="1.36208" ry="1.21742" fill="#8E78C1"/>
<ellipse cx="36.4871" cy="18.9192" rx="1.36208" ry="1.21742" fill="#8E78C1"/>
<ellipse cx="32.7722" cy="20.4688" rx="1.36208" ry="1.21742" fill="#8E78C1"/>
<ellipse cx="31.2859" cy="17.5911" rx="1.36208" ry="1.21742" fill="#8E78C1"/>
<ellipse cx="40.2019" cy="17.5911" rx="1.36208" ry="1.21742" fill="#8E78C1"/>
<ellipse cx="39.2097" cy="22.0182" rx="1.36208" ry="1.21742" fill="#8E78C1"/>
</g>
<circle cx="40.4614" cy="9.84628" r="1.84615" fill="#6AABC7"/>
<path d="M32.7971 34.4138C27.0317 27.2199 27.8198 19.9153 27.8198 19.9153L22 21.1328V26.7772L25.9624 26.8879V41.0543H23.6097L23.7336 48.4695H35.3731C35.3731 48.4695 31.9919 47.0523 30.7117 45.3706C27.9874 41.7919 35.6167 37.9319 32.7971 34.4138Z" fill="#F6BE67"/>
</svg>
