<svg width="81" height="79" viewBox="0 0 81 79" fill="none" xmlns="http://www.w3.org/2000/svg">
<path d="M5.26347 38.2122C5.26347 38.7376 5.70208 39.1703 6.23469 39.1703C6.76731 39.1703 7.20594 38.7376 7.20594 38.2122C7.20594 37.6868 6.76731 37.254 6.23469 37.254C5.69164 37.254 5.26347 37.6765 5.26347 38.2122Z" fill="#434C63"/>
<path d="M40.04 0C17.9626 0 0 17.7204 0 39.5C0 61.2796 17.9626 79 40.04 79C62.1173 79 80.0799 61.2796 80.0799 39.5C80.0799 17.7204 62.1173 0 40.04 0ZM40.04 77.9697C18.537 77.9697 1.04434 60.713 1.04434 39.5C1.04434 18.287 18.537 1.03026 40.04 1.03026C61.5429 1.03026 79.0356 18.287 79.0356 39.5C79.0356 60.713 61.5429 77.9697 40.04 77.9697Z" fill="#434C63"/>
<path d="M11.5922 39.4691C11.5922 54.9641 24.3749 67.5745 40.0817 67.5745C55.7886 67.5745 68.5713 54.9641 68.5713 39.4691C68.5713 23.974 55.7886 11.3637 40.0817 11.3637C24.3749 11.3637 11.5922 23.974 11.5922 39.4691ZM40.0817 12.497C55.1515 12.497 67.4225 24.5922 67.4225 39.4691C67.4225 54.346 55.162 66.4412 40.0817 66.4412C25.0015 66.4412 12.7409 54.346 12.7409 39.4691C12.7409 24.5922 25.0015 12.497 40.0817 12.497Z" fill="#434C63"/>
<path d="M9.02308 33.3185C9.05441 33.1124 9.06485 32.9167 9.04397 32.7312C9.02308 32.5458 8.97087 32.3809 8.89776 32.247C8.82466 32.1028 8.72022 31.9894 8.59489 31.8967C8.46957 31.804 8.32337 31.7422 8.15627 31.7113C8.0414 31.6907 7.92652 31.6907 7.81164 31.7113C7.69676 31.7319 7.60278 31.7834 7.50879 31.8452C7.4148 31.907 7.33124 31.9997 7.25814 32.1028C7.18504 32.2161 7.12238 32.3397 7.08061 32.4943H7.07017C7.04928 32.2367 6.96573 32.0307 6.84041 31.8761C6.71509 31.7216 6.54799 31.6288 6.32868 31.5876C6.05715 31.5464 5.8274 31.6186 5.62897 31.804C5.44099 31.9997 5.30522 32.3088 5.23212 32.7312L4.99193 34.1015L8.76199 34.7402L9.02308 33.3185ZM6.74643 33.2155L6.6942 33.5348L5.74385 33.37L5.80651 33.0403C5.84828 32.8239 5.9005 32.6694 5.97361 32.5767C6.04671 32.484 6.17203 32.4531 6.32868 32.484C6.50622 32.5149 6.63154 32.5973 6.70464 32.7209C6.7673 32.8342 6.77776 33.0094 6.74643 33.2155ZM8.41736 33.3597L8.34426 33.8027L7.27903 33.6275L7.35214 33.2258C7.39392 32.9785 7.46701 32.793 7.58188 32.69C7.68632 32.5767 7.83254 32.5458 8.02052 32.5767C8.2085 32.6076 8.33382 32.69 8.39648 32.8239C8.4487 32.9579 8.45913 33.133 8.41736 33.3597Z" fill="#434C63"/>
<path d="M9.63925 30.5574L7.86387 28.2393C7.80121 28.1569 7.74899 28.0848 7.69678 28.0229C7.64456 27.9611 7.60279 27.9199 7.57146 27.889V27.8787C7.62368 27.8993 7.69679 27.9302 7.79078 27.9611C7.88477 27.992 7.99964 28.0332 8.12496 28.0642L10.2241 28.7029L10.4538 27.9508L6.79864 26.8485L6.52712 27.7139L8.28162 30.001C8.34428 30.0835 8.39649 30.1556 8.43826 30.2071C8.48004 30.2586 8.52181 30.2998 8.55314 30.3307V30.341C8.51137 30.3204 8.43826 30.2895 8.35472 30.2586C8.27117 30.2277 8.15629 30.1968 8.03097 30.1556L5.96319 29.5271L5.73343 30.2689L9.38862 31.3816L9.63925 30.5574Z" fill="#434C63"/>
<path d="M9.0022 23.4589L8.40694 23.2014L7.10151 26.0758L7.69678 26.3334L8.17718 25.2825L11.07 26.56L11.4251 25.7873L8.52182 24.5098L9.0022 23.4589Z" fill="#434C63"/>
<path d="M13.3049 22.3051L12.7618 21.996L11.9995 23.3147L11.1431 22.8305L11.801 21.6972L11.258 21.3881L10.6001 22.5214L9.77502 22.0578L10.4956 20.8318L9.94212 20.5227L8.80379 22.4802L12.1248 24.3553L13.3049 22.3051Z" fill="#434C63"/>
<path d="M14.4954 20.6257C14.6312 20.4403 14.7252 20.2651 14.7878 20.09C14.8505 19.9148 14.8714 19.75 14.8609 19.5851C14.8505 19.4306 14.8087 19.2761 14.7252 19.1421C14.6416 19.0082 14.5267 18.8846 14.3805 18.7713C14.2448 18.6785 14.0986 18.6167 13.9524 18.5858C13.8061 18.5549 13.6599 18.5652 13.5137 18.6064C13.3675 18.6476 13.2213 18.7197 13.0751 18.8228C12.9289 18.9258 12.7931 19.07 12.6678 19.2452L12.271 19.7912L11.5504 19.2761L12.5112 17.9677L11.9994 17.6071L10.5478 19.6058L13.6495 21.8105L14.4954 20.6257ZM13.0542 19.7294C13.2109 19.5233 13.3571 19.3894 13.4928 19.3482C13.6286 19.2967 13.7853 19.3379 13.9419 19.4512C14.109 19.5645 14.1821 19.6985 14.1821 19.853C14.1821 20.0076 14.0986 20.1827 13.9524 20.3887L13.6599 20.7906L12.7618 20.1518L13.0542 19.7294Z" fill="#434C63"/>
<path d="M14.1404 18.0707C14.3492 18.2561 14.579 18.4004 14.8087 18.4828C15.0489 18.5652 15.2787 18.6064 15.5189 18.5858C15.7591 18.5652 15.9888 18.5034 16.229 18.3798C16.4588 18.2561 16.6781 18.081 16.887 17.8543C17.2107 17.504 17.4196 17.164 17.524 16.8447L17.0123 16.3913C16.9392 16.7107 16.7825 17.0095 16.5319 17.2877C16.3961 17.4319 16.2499 17.5452 16.1037 17.6277C15.9575 17.7101 15.8009 17.7513 15.6442 17.7513C15.4875 17.7616 15.3309 17.7307 15.1638 17.6689C14.9967 17.6071 14.8505 17.5143 14.7043 17.3804C14.5476 17.2465 14.4328 17.0919 14.3492 16.9374C14.2657 16.7829 14.2239 16.618 14.2135 16.4532C14.203 16.2883 14.2343 16.1235 14.297 15.9587C14.3597 15.7938 14.4641 15.629 14.5999 15.4847C14.8296 15.2375 15.0907 15.0623 15.3936 14.9593L14.8505 14.4751C14.5999 14.609 14.3283 14.8254 14.0568 15.1241C13.8375 15.3611 13.6808 15.6084 13.5764 15.8659C13.472 16.1235 13.4198 16.3913 13.4302 16.6489C13.4406 16.9065 13.5033 17.164 13.6182 17.401C13.7435 17.6483 13.9211 17.8646 14.1404 18.0707Z" fill="#434C63"/>
<path d="M18.7041 15.9896L17.4614 14.6091L17.4718 14.5987C17.5136 14.6193 17.5553 14.6297 17.6076 14.64C17.6493 14.6503 17.6911 14.6606 17.712 14.6709L19.738 15.1036L20.5004 14.4339L18.0462 13.96L17.8791 11.6934L17.1689 12.3116L17.3465 14.2485C17.3465 14.2897 17.3569 14.3309 17.3674 14.3824C17.3778 14.4236 17.3778 14.4648 17.3883 14.4957L17.3778 14.506L16.1873 13.177L15.5502 13.7333L18.088 16.5562L18.7041 15.9896Z" fill="#434C63"/>
<path d="M21.409 13.7951L21.4925 10.8898C21.4925 10.7868 21.4925 10.694 21.4925 10.6116C21.4925 10.5292 21.4821 10.4674 21.4821 10.4262L21.4925 10.4159C21.5134 10.4674 21.5552 10.5292 21.6074 10.6116C21.6596 10.694 21.7222 10.7868 21.7954 10.9001L23.0381 12.6927L23.6961 12.2497L21.5447 9.13836L20.7928 9.64318L20.7197 12.5073C20.7197 12.6103 20.7197 12.703 20.7197 12.7649C20.7197 12.8267 20.7197 12.8885 20.7301 12.9297L20.7197 12.94C20.6988 12.8988 20.657 12.837 20.6153 12.7545C20.563 12.6721 20.5004 12.5794 20.4273 12.4764L19.2158 10.7147L18.5579 11.1577L20.7092 14.269L21.409 13.7951Z" fill="#434C63"/>
<path d="M24.6568 10.3644C24.6464 10.4262 24.6464 10.488 24.6464 10.5292H24.636C24.6151 10.488 24.5942 10.4159 24.5524 10.3335C24.5106 10.251 24.4689 10.148 24.4062 10.0347L23.4559 8.11839L22.7457 8.45839L24.4271 11.8479L25.1999 11.477L25.7012 8.61292C25.7221 8.5099 25.7325 8.42747 25.743 8.34505C25.7534 8.26262 25.7534 8.20082 25.7534 8.15961L25.7638 8.14929C25.7847 8.20081 25.8056 8.27294 25.8474 8.35536C25.8892 8.44808 25.9414 8.55109 25.9936 8.66442L26.9648 10.6116L27.675 10.2717L25.9936 6.8821L25.1686 7.2736L24.6777 10.1068C24.6777 10.2098 24.6568 10.3026 24.6568 10.3644Z" fill="#434C63"/>
<path d="M23.3201 7.26329C23.5707 7.33541 23.8318 7.30451 24.1138 7.18088C24.3749 7.05725 24.5629 6.87179 24.6673 6.61422C24.7717 6.36696 24.7717 6.10939 24.6673 5.83122L24.2287 6.03728C24.2809 6.19182 24.2704 6.32576 24.2182 6.45969C24.166 6.59363 24.0616 6.68636 23.9258 6.75847C23.6021 6.91301 23.341 6.85119 23.1635 6.55241L22.7248 6.75847C22.871 7.02634 23.0695 7.19117 23.3201 7.26329Z" fill="#434C63"/>
<path d="M31.0378 9.15896L30.1605 6.14032L31.6122 5.72822L31.4346 5.12037L29.1684 5.76941L30.2232 9.38561L31.0378 9.15896Z" fill="#434C63"/>
<path d="M32.4267 7.64451C32.5625 7.86087 32.7296 8.03602 32.928 8.16995C33.1264 8.30389 33.3562 8.3966 33.6068 8.44811C33.8575 8.49962 34.129 8.49962 34.4214 8.44811C34.7138 8.3966 34.9749 8.30389 35.2047 8.16995C35.4344 8.03602 35.6119 7.87117 35.7582 7.67542C35.9044 7.47967 35.9984 7.24273 36.0506 6.98516C36.1028 6.7276 36.1028 6.44943 36.0506 6.15066C35.9984 5.88279 35.9148 5.63551 35.7895 5.41916C35.6642 5.2028 35.4971 5.02767 35.2986 4.88343C35.1002 4.7392 34.8809 4.64648 34.6303 4.59496C34.3796 4.54345 34.1081 4.53314 33.8261 4.58465C33.5128 4.63616 33.2413 4.72889 33.0115 4.87312C32.7818 5.00706 32.5938 5.1822 32.4476 5.38825C32.3014 5.5943 32.2074 5.82097 32.1552 6.07854C32.103 6.3361 32.103 6.60397 32.1552 6.89245C32.2074 7.19122 32.2909 7.42816 32.4267 7.64451ZM33.1577 5.73853C33.2308 5.6046 33.3353 5.50158 33.4606 5.41916C33.5859 5.33674 33.7321 5.27494 33.8992 5.24403C34.0768 5.21312 34.2334 5.2131 34.3692 5.25431C34.5154 5.28522 34.6407 5.35734 34.7451 5.45006C34.8496 5.54279 34.9436 5.67671 35.0167 5.83125C35.0898 5.98579 35.142 6.16095 35.1838 6.367C35.2151 6.57306 35.2255 6.7482 35.2047 6.91304C35.1838 7.07788 35.142 7.2221 35.0689 7.34573C34.9958 7.46936 34.9018 7.5724 34.7765 7.65482C34.6512 7.73725 34.5049 7.78876 34.3274 7.81967C34.1603 7.85058 34.0141 7.84026 33.8679 7.80936C33.7217 7.76815 33.5964 7.70632 33.4919 7.60329C33.3771 7.51057 33.2831 7.38695 33.21 7.23242C33.1369 7.07788 33.0742 6.91304 33.0429 6.71729C33.0115 6.52154 33.0011 6.3464 33.022 6.17125C33.0429 5.99611 33.0846 5.86216 33.1577 5.73853Z" fill="#434C63"/>
<path d="M37.1472 7.58267C37.3247 7.7372 37.544 7.85053 37.7946 7.93295C38.0453 8.00507 38.3273 8.04627 38.6406 8.02567C39.121 8.00506 39.5074 7.91236 39.8207 7.75782L39.7893 7.07785C39.5074 7.25299 39.1836 7.35602 38.8077 7.36632C38.6092 7.37662 38.4212 7.35602 38.2646 7.30451C38.0975 7.253 37.9617 7.17056 37.8469 7.06754C37.732 6.96451 37.638 6.83057 37.5753 6.67604C37.5127 6.5215 37.4709 6.34638 37.4604 6.15063C37.45 5.94458 37.4709 5.75912 37.5336 5.59428C37.5858 5.42944 37.6693 5.28519 37.7842 5.16156C37.8991 5.03793 38.0348 4.94521 38.2019 4.87309C38.369 4.80097 38.557 4.75977 38.7659 4.74946C39.1105 4.72886 39.4238 4.79067 39.7058 4.9349L39.6745 4.21374C39.4029 4.13132 39.0583 4.0901 38.651 4.11071C38.3272 4.12101 38.0348 4.19312 37.7738 4.29615C37.5127 4.40948 37.2934 4.5537 37.1158 4.73915C36.9278 4.9246 36.7921 5.14097 36.6981 5.39853C36.6041 5.65609 36.5623 5.92396 36.5832 6.23303C36.5936 6.5112 36.6563 6.76876 36.7607 6.99541C36.8234 7.24267 36.9696 7.42813 37.1472 7.58267Z" fill="#434C63"/>
<path d="M40.771 8.01542C40.9799 8.02572 41.1574 8.01541 41.3036 7.9742C41.4498 7.93299 41.596 7.86086 41.7213 7.76814C41.8467 7.67541 41.9616 7.55181 42.0764 7.40757C42.1913 7.26334 42.2957 7.08819 42.4211 6.89244L43.904 4.36831L43.0059 4.31681L42.2331 5.75916C42.1913 5.84158 42.1391 5.93429 42.0973 6.00641C42.0555 6.08883 42.0138 6.17124 41.972 6.25366C41.9616 6.20215 41.9511 6.15065 41.9302 6.10944C41.9093 6.06823 41.8989 6.01671 41.8884 5.9755L41.147 4.21377L40.2279 4.15196L41.4812 6.88213C41.4185 6.98516 41.3454 7.06758 41.2827 7.1397C41.2201 7.21181 41.1574 7.26332 41.0843 7.29423C41.0216 7.33544 40.959 7.35603 40.8963 7.37663C40.8337 7.38694 40.771 7.39725 40.7083 7.38695C40.5308 7.37664 40.3637 7.31483 40.2071 7.2221L40.1653 7.91239C40.2384 7.9433 40.3115 7.97419 40.4055 7.99479C40.5099 7.99479 40.6248 8.00512 40.771 8.01542Z" fill="#434C63"/>
<path d="M43.1312 7.42813L42.8388 9.04564L43.6011 9.17955L43.7787 8.16992L46.4313 8.63352L46.2538 9.63287L47.0161 9.7668L47.1937 8.77777L47.9978 9.02502L48.5513 8.27295L49.9298 8.69536L49.9716 9.62259L50.8593 9.89043L50.5878 5.86216L49.6688 5.58397L47.225 8.62324L47.3085 8.14929L46.7342 8.04629L47.2877 4.94521L45.011 4.55371C44.9483 4.83188 44.8648 5.09976 44.7604 5.36762C44.6559 5.63549 44.541 5.89305 44.4157 6.14031C44.28 6.38758 44.1442 6.62454 43.9875 6.85119C43.8309 7.07785 43.6638 7.28389 43.4967 7.47964L43.1312 7.42813ZM49.6792 6.74816C49.721 6.68635 49.7627 6.62454 49.8045 6.56272C49.8463 6.50091 49.8776 6.44939 49.8985 6.39788L49.9194 6.40819C49.909 6.4597 49.8985 6.53179 49.8985 6.60391C49.8985 6.67603 49.8985 6.74816 49.8985 6.80998L49.9403 8.0772L48.9482 7.77842L49.6792 6.74816ZM44.7499 7.11904C44.8752 6.92329 45.0006 6.71724 45.1154 6.51119C45.2303 6.30514 45.3348 6.0888 45.4183 5.88275C45.5018 5.6767 45.5749 5.48095 45.6167 5.30581L46.3373 5.42944L45.8987 7.91236L44.374 7.64448C44.4993 7.48994 44.6246 7.31479 44.7499 7.11904Z" fill="#434C63"/>
<path d="M52.4363 9.15899L52.8436 9.33415C53.0629 9.42687 53.2613 9.47839 53.4702 9.49899C53.6686 9.5196 53.8566 9.49898 54.0237 9.45777C54.1908 9.41656 54.3474 9.32385 54.4727 9.21052C54.5981 9.09719 54.7129 8.95294 54.786 8.7778C54.9427 8.42751 54.9427 8.10812 54.786 7.82995C54.6294 7.54148 54.3265 7.30454 53.867 7.10879L52.6451 6.58335L51.11 10.0347L51.8932 10.3747L52.4363 9.15899ZM53.1882 7.46939L53.5224 7.61361C53.7521 7.71663 53.8984 7.82995 53.9715 7.96389C54.0446 8.09782 54.0341 8.26267 53.9506 8.45842C53.8566 8.66447 53.7313 8.7881 53.5746 8.83961C53.418 8.89112 53.2195 8.86023 52.9793 8.75721L52.666 8.62327L53.1882 7.46939Z" fill="#434C63"/>
<path d="M54.6085 10.4571C54.5667 10.7043 54.5876 10.9413 54.6503 11.168C54.7129 11.3946 54.8278 11.611 55.0053 11.8067C55.1724 12.0025 55.3918 12.1879 55.6633 12.3322C56.081 12.5691 56.457 12.703 56.7912 12.7339L57.1358 12.1467C56.8016 12.1467 56.4779 12.054 56.1437 11.8685C55.9661 11.7655 55.8304 11.6522 55.7155 11.5286C55.6111 11.3946 55.538 11.2607 55.4962 11.1061C55.4544 10.9516 55.4544 10.797 55.4753 10.6322C55.5066 10.4674 55.5693 10.3025 55.6633 10.1274C55.7677 9.95225 55.8826 9.808 56.0288 9.69467C56.1646 9.58134 56.3212 9.50926 56.4779 9.46805C56.6345 9.42683 56.8121 9.41651 56.9896 9.44742C57.1671 9.47833 57.3447 9.54015 57.5222 9.64317C57.8146 9.81831 58.0444 10.0347 58.2115 10.3026L58.577 9.67408C58.389 9.45772 58.1279 9.24139 57.7729 9.04564C57.4909 8.8808 57.2089 8.77775 56.9374 8.73654C56.6554 8.68503 56.3943 8.69535 56.1332 8.75717C55.8722 8.81898 55.6424 8.93229 55.4231 9.08682C55.2038 9.24136 55.0262 9.45774 54.8696 9.72561C54.7443 9.97287 54.6503 10.2201 54.6085 10.4571Z" fill="#434C63"/>
<path d="M61.6369 11.7346L59.0678 9.88015L58.6814 10.3953L59.6213 11.0752L57.752 13.5994L58.4412 14.1042L60.3106 11.5698L61.2609 12.2497L61.6369 11.7346Z" fill="#434C63"/>
<path d="M60.8014 16.0308C60.9581 16.175 61.1252 16.2883 61.2923 16.3707C61.4594 16.4532 61.6265 16.4944 61.7831 16.515C61.9398 16.5253 62.0964 16.5047 62.2426 16.4532C62.3888 16.4017 62.5141 16.3089 62.629 16.1853C62.7126 16.1029 62.7648 15.9999 62.8066 15.8968C62.8483 15.7938 62.8588 15.6805 62.8588 15.5671C62.8483 15.4538 62.8274 15.3405 62.7648 15.2169C62.7126 15.0932 62.629 14.9799 62.5246 14.8666L62.535 14.8563C62.7648 14.9696 62.9841 15.0211 63.193 15.0005C63.3914 14.9799 63.5689 14.8872 63.7151 14.7326C63.9031 14.5266 63.9658 14.2999 63.9031 14.0321C63.8405 13.7642 63.6525 13.4963 63.3287 13.1976L62.2844 12.2703L59.7153 15.0623L60.8014 16.0308ZM62.5246 13.2697L62.7752 13.4963C62.9423 13.6406 63.0468 13.7745 63.0781 13.8878C63.1199 14.0012 63.0781 14.1145 62.9737 14.2278C62.8483 14.3618 62.7126 14.4236 62.5768 14.4133C62.4306 14.403 62.2844 14.3308 62.1277 14.1866L61.8875 13.9703L62.5246 13.2697ZM61.7727 14.6811C61.9607 14.8563 62.0755 15.0108 62.1173 15.1654C62.1486 15.3096 62.1069 15.4538 61.9815 15.5981C61.8562 15.7423 61.7205 15.7938 61.5742 15.7732C61.428 15.7526 61.2714 15.6599 61.0938 15.5156L60.7492 15.2169L61.4802 14.4236L61.7727 14.6811Z" fill="#434C63"/>
<path d="M63.8718 19.1936L64.3417 18.7815L63.3183 17.6483L64.0493 17.0095L64.9266 17.9779L65.407 17.5555L64.5193 16.5871L65.219 15.969L66.1798 17.0198L66.6497 16.6077L65.125 14.9181L62.274 17.4319L63.8718 19.1936Z" fill="#434C63"/>
<path d="M67.3599 17.4423L64.2373 19.6161L64.7281 20.3064L66.0754 19.3688L67.0675 20.7597L65.7203 21.6869L66.2111 22.3875L69.3337 20.2136L68.8428 19.5234L67.6001 20.3888L66.608 18.9979L67.8507 18.1325L67.3599 17.4423Z" fill="#434C63"/>
<path d="M67.0466 23.8401L68.5087 23.0983L69.3023 24.6025L67.8403 25.3546L68.2267 26.0964L71.6208 24.3655L71.2344 23.6134L69.8767 24.3037L69.083 22.7995L70.4407 22.1093L70.0438 21.3572L66.6497 23.088L67.0466 23.8401Z" fill="#434C63"/>
<path d="M73.3095 28.8257L69.6894 30.0358L69.9642 30.8359L73.5843 29.6259L73.3095 28.8257Z" fill="#434C63"/>
<path d="M69.0517 28.2084C69.1248 28.4144 69.2188 28.5999 69.3232 28.7441C69.4381 28.8987 69.5634 29.012 69.6992 29.0944C69.835 29.1768 69.9916 29.2283 70.1482 29.2489C70.3049 29.2695 70.472 29.2489 70.6495 29.1871C70.8062 29.1356 70.9419 29.0532 71.0464 28.9502C71.1508 28.8471 71.2344 28.7235 71.2866 28.5793C71.3388 28.435 71.3597 28.2805 71.3597 28.1054C71.3492 27.9302 71.3179 27.7345 71.2448 27.5284L71.0255 26.8896L72.4667 26.4054L72.1952 25.6121L68.5713 26.8176L69.0517 28.2084ZM70.472 27.0957L70.6391 27.5696C70.7226 27.8066 70.7435 27.992 70.7018 28.1363C70.66 28.2805 70.5451 28.3835 70.3571 28.4453C70.1691 28.5072 70.0125 28.4968 69.8872 28.4041C69.7618 28.3114 69.6574 28.1466 69.5843 27.9096L69.4277 27.446L70.472 27.0957Z" fill="#434C63"/>
<path d="M70.284 32.4531L72.9367 33.7306C73.0307 33.7718 73.1142 33.813 73.1873 33.8439C73.2604 33.8748 73.3231 33.8954 73.3648 33.9057V33.916C73.3126 33.916 73.2291 33.9263 73.1351 33.9366C73.0411 33.9469 72.9262 33.9675 72.7905 33.9881L70.6287 34.359L70.7644 35.1317L74.5241 34.4827L74.3674 33.5966L71.7461 32.35C71.6521 32.3088 71.5686 32.2676 71.5059 32.247C71.4433 32.2264 71.391 32.2058 71.3493 32.1852V32.1749C71.4015 32.1749 71.4746 32.1646 71.5686 32.1543C71.6626 32.144 71.7774 32.1233 71.9028 32.1027L74.0332 31.7319L73.8975 30.9592L70.1378 31.6082L70.284 32.4531Z" fill="#434C63"/>
<path d="M75.1611 33.3082C75.3699 33.473 75.631 33.5451 75.9234 33.5245L75.8399 33.0506C75.6832 33.0506 75.5475 33.0094 75.4326 32.9166C75.3177 32.8239 75.2551 32.7106 75.2237 32.5561C75.1611 32.2058 75.2968 31.9791 75.631 31.8967L75.5475 31.4228C75.2551 31.4846 75.0462 31.6288 74.9 31.8452C74.7538 32.0615 74.712 32.3191 74.7642 32.6179C74.8164 32.9063 74.9418 33.133 75.1611 33.3082Z" fill="#434C63"/>
<path d="M8.05186 41.4266L4.88752 41.5708L4.91884 42.4156L8.09363 42.2714L8.14585 43.4253L8.79333 43.3944L8.64713 40.2418L7.99964 40.2727L8.05186 41.4266Z" fill="#434C63"/>
<path d="M5.83784 45.1458L6.80908 45.0016L6.99706 46.2997L7.62367 46.2069L7.43568 44.9191L8.36514 44.7852L8.57402 46.1863L9.20061 46.0936L8.86643 43.858L5.08591 44.404L5.43055 46.7324L6.05716 46.6397L5.83784 45.1458Z" fill="#434C63"/>
<path d="M10.1092 49.7717L9.87946 48.865L8.65758 48.5045C8.59492 48.4838 8.5427 48.4735 8.49049 48.4632C8.43827 48.4529 8.38605 48.4426 8.32339 48.4426V48.4323C8.41738 48.3705 8.50093 48.2984 8.57403 48.2263L9.4826 47.3609L9.23196 46.3821L7.70723 47.9893L5.50367 47.2063L5.7543 48.1645L7.11195 48.556C7.16417 48.5663 7.21638 48.5766 7.25816 48.5869C7.29993 48.5972 7.33127 48.5972 7.3626 48.5972V48.6075C7.32082 48.6384 7.27905 48.659 7.24772 48.6899C7.21639 48.7105 7.18506 48.7414 7.15373 48.7723L6.17205 49.7614L6.4227 50.7195L7.95786 49.0402L10.1092 49.7717Z" fill="#434C63"/>
<path d="M11.1953 52.5328L9.77502 53.0891L9.14841 51.5025L10.5583 50.9565L10.245 50.1632L6.69422 51.5437L7.00752 52.337L8.53225 51.7395L9.1693 53.326L7.63412 53.9133L7.94742 54.7066L11.5086 53.326L11.1953 52.5328Z" fill="#434C63"/>
<path d="M11.258 58.4464C11.5191 58.4052 11.7906 58.3125 12.0621 58.1682C12.3023 58.0343 12.5112 57.8694 12.6678 57.6737C12.8245 57.4779 12.9394 57.2719 13.0125 57.0452C13.0856 56.8186 13.096 56.5816 13.0647 56.3241C13.0333 56.0665 12.9498 55.8193 12.8036 55.572C12.6469 55.3041 12.4694 55.0775 12.2605 54.9126C12.0517 54.7478 11.8219 54.6241 11.5817 54.5623C11.3415 54.5005 11.0909 54.4799 10.8298 54.5211C10.5687 54.5623 10.3076 54.6551 10.0465 54.7993C9.79589 54.9332 9.59747 55.0981 9.43038 55.3041C9.26328 55.5102 9.15886 55.7162 9.0962 55.9429C9.03354 56.1695 9.01264 56.4168 9.05441 56.6641C9.09619 56.9216 9.17975 57.1689 9.32595 57.4264C9.47216 57.684 9.63925 57.89 9.84812 58.0549C10.0465 58.2197 10.2658 58.3331 10.506 58.4052C10.7358 58.467 10.9864 58.4876 11.258 58.4464ZM10.1927 57.4779C10.0779 57.3852 9.97344 57.2719 9.87945 57.1174C9.7959 56.9731 9.75412 56.8289 9.74368 56.6847C9.73324 56.5404 9.75412 56.3962 9.80634 56.2622C9.85856 56.1283 9.95255 56.0047 10.0674 55.8811C10.1823 55.7574 10.3285 55.6544 10.506 55.5514C10.6836 55.4586 10.8507 55.3865 11.0178 55.3556C11.1849 55.3144 11.3415 55.3144 11.4877 55.3453C11.6339 55.3659 11.7697 55.4277 11.895 55.5101C12.0203 55.5926 12.1248 55.7162 12.2083 55.8605C12.2919 56.015 12.3441 56.1592 12.3545 56.3035C12.365 56.4477 12.3441 56.5816 12.2919 56.7156C12.2397 56.8495 12.1457 56.9731 12.0203 57.0967C11.895 57.2204 11.7488 57.3234 11.5608 57.4264C11.3833 57.5295 11.2058 57.5913 11.0491 57.6325C10.882 57.6737 10.7254 57.6737 10.5896 57.6531C10.4434 57.6325 10.3181 57.5707 10.1927 57.4779Z" fill="#434C63"/>
<path d="M14.4954 58.3537C14.3179 58.4464 14.1403 58.5391 13.9837 58.6319C13.8166 58.7143 13.6599 58.7967 13.5033 58.8791C13.3466 58.9616 13.19 59.0337 13.0333 59.1058C12.8767 59.1779 12.7305 59.25 12.5738 59.3221C12.3754 59.4149 12.2083 59.4767 12.0725 59.5385C11.9368 59.59 11.8115 59.6209 11.7175 59.6415C11.6235 59.6518 11.5399 59.6518 11.4668 59.6312C11.4042 59.6003 11.3415 59.5591 11.2893 59.487C11.2266 59.4046 11.1849 59.3118 11.1535 59.1985L10.6418 59.5694C10.694 59.7136 10.7776 59.8476 10.882 59.9918C11.0073 60.1566 11.1431 60.2803 11.2893 60.3421C11.4355 60.4142 11.5817 60.4451 11.7279 60.4451C11.8741 60.4451 12.0308 60.4142 12.1874 60.3627C12.3441 60.3112 12.5007 60.2391 12.6678 60.167C12.7827 60.1154 12.8976 60.0639 13.0229 60.0021C13.1482 59.9403 13.284 59.8785 13.4197 59.8064C13.5555 59.7342 13.7122 59.6621 13.8793 59.5797C14.0359 59.4973 14.2134 59.4046 14.4119 59.3015L14.8923 59.93L12.3545 61.8154L12.8662 62.485L15.9157 60.2185L14.4954 58.3537Z" fill="#434C63"/>
<path d="M18.1715 64.1128C18.2759 63.8862 18.3281 63.6492 18.3386 63.4123C18.3386 63.1753 18.2968 62.9383 18.2028 62.7014C18.1088 62.4644 17.9522 62.2481 17.7433 62.042C17.524 61.8154 17.2838 61.6505 17.0436 61.5475C16.8034 61.4445 16.5423 61.3827 16.3021 61.3827C16.0515 61.3827 15.8009 61.4342 15.5607 61.5372C15.3205 61.6402 15.0907 61.7948 14.8818 62.0008C14.6834 62.1966 14.5268 62.4129 14.4223 62.6396C14.3179 62.8662 14.2657 63.1032 14.2657 63.3401C14.2657 63.5771 14.3179 63.8141 14.4223 64.051C14.5268 64.288 14.6834 64.5043 14.8818 64.7104C15.0907 64.9164 15.31 65.0813 15.5502 65.1843C15.7904 65.2873 16.0306 65.3491 16.2812 65.3491C16.5319 65.3491 16.7721 65.3079 17.0227 65.1946C17.2734 65.0813 17.5031 64.937 17.7224 64.7207C17.9104 64.5455 18.0671 64.3395 18.1715 64.1128ZM17.4091 63.711C17.3256 63.8553 17.2003 63.9995 17.0541 64.154C16.9079 64.2983 16.7616 64.4116 16.6154 64.4837C16.4692 64.5662 16.323 64.6074 16.1768 64.6177C16.0306 64.628 15.8844 64.6073 15.7486 64.5558C15.6129 64.5043 15.4771 64.4116 15.3518 64.288C15.2369 64.1747 15.1534 64.0407 15.1012 63.9068C15.0489 63.7729 15.0385 63.6286 15.0489 63.4844C15.0698 63.3401 15.1116 63.1959 15.1951 63.0517C15.2787 62.9074 15.3936 62.7632 15.5293 62.619C15.6755 62.485 15.8217 62.3717 15.968 62.2996C16.1142 62.2172 16.2708 62.176 16.417 62.1657C16.5632 62.1554 16.7094 62.1657 16.8556 62.2275C17.0018 62.2893 17.1272 62.3614 17.2525 62.485C17.3778 62.6087 17.4614 62.7426 17.5136 62.8765C17.5658 63.0105 17.5762 63.1547 17.5553 63.2886C17.5449 63.4226 17.4927 63.5668 17.4091 63.711Z" fill="#434C63"/>
<path d="M20.9494 65.7406L21.3463 65.2461L19.5082 63.7831L17.1063 66.7091L17.7746 67.2448L19.7798 64.8031L20.9494 65.7406Z" fill="#434C63"/>
<path d="M23.9885 66.9563L21.2941 68.0278C21.1896 68.069 21.1165 68.0999 21.0539 68.1308C20.9912 68.1617 20.9494 68.1823 20.9077 68.2029H20.8972C20.9285 68.1617 20.9703 68.1102 21.0225 68.0278C21.0748 67.9454 21.1374 67.8629 21.2105 67.7496L22.3697 65.9467L21.7014 65.5243L19.6545 68.7078L20.3855 69.1611L23.1321 68.0896C23.2261 68.0484 23.3096 68.0175 23.3827 67.9866C23.4558 67.9557 23.5081 67.9248 23.5498 67.9042L23.5603 67.9145C23.5289 67.9557 23.4767 68.0175 23.4245 68.0999C23.3723 68.1823 23.3096 68.275 23.2365 68.3884L22.0564 70.2222L22.7248 70.6446L24.7717 67.4611L23.9885 66.9563Z" fill="#434C63"/>
<path d="M27.5705 68.7593L26.8813 70.2326C26.6933 70.2429 26.5262 70.2326 26.3695 70.212C26.2129 70.1913 26.0667 70.1501 25.9309 70.0883C25.7534 70.0059 25.649 69.9132 25.6072 69.7895C25.5654 69.6659 25.5863 69.5217 25.6698 69.3362L26.2233 68.1411L25.4505 67.7908L24.8448 69.089C24.6882 69.4187 24.6673 69.7071 24.7717 69.9544C24.8761 70.2016 25.0954 70.4077 25.4401 70.5519C25.6281 70.6343 25.8265 70.6962 26.0249 70.7271C26.2233 70.758 26.4322 70.7683 26.6411 70.758L25.9831 72.1797L26.7559 72.53L28.3538 69.1096L27.5705 68.7593Z" fill="#434C63"/>
<path d="M31.184 70.7167L31.3824 70.1192L29.1997 69.4083L28.0092 72.9936L30.2754 73.7251L30.4634 73.1378L29.0117 72.6639L29.325 71.747L30.5783 72.1488L30.7767 71.5616L29.5235 71.1495L29.8159 70.2737L31.184 70.7167Z" fill="#434C63"/>
<path d="M33.0325 70.6034C32.7505 70.6446 32.4998 70.7271 32.2701 70.861C32.0508 70.9949 31.8524 71.1701 31.6957 71.3967C31.5391 71.6131 31.4346 71.8706 31.3615 72.1694C31.2988 72.4476 31.2884 72.7052 31.3302 72.9524C31.3719 73.1997 31.4555 73.416 31.5913 73.6118C31.727 73.8075 31.9046 73.9724 32.1239 74.1166C32.3432 74.2505 32.6043 74.3536 32.9071 74.4257C33.3771 74.5287 33.7844 74.539 34.1081 74.4669L34.2543 73.7972C33.941 73.9002 33.5964 73.9105 33.2204 73.8281C33.022 73.7869 32.8549 73.7148 32.7087 73.6221C32.5625 73.5294 32.4476 73.416 32.3641 73.2821C32.2805 73.1481 32.2283 73.0039 32.197 72.8391C32.1761 72.6742 32.1865 72.4991 32.2283 72.3034C32.2701 72.1076 32.3432 71.9325 32.4372 71.7882C32.5312 71.644 32.6565 71.5204 32.7923 71.4379C32.928 71.3452 33.0951 71.2937 33.2726 71.2628C33.4502 71.2319 33.6382 71.2422 33.847 71.2834C34.1812 71.3555 34.4632 71.4997 34.7034 71.7058L34.8601 70.9949C34.6199 70.8404 34.2961 70.7271 33.8993 70.6343C33.6173 70.5725 33.3144 70.5622 33.0325 70.6034Z" fill="#434C63"/>
<path d="M37.6693 71.2113L36.3535 72.6639C36.3221 72.6949 36.2908 72.7257 36.2699 72.767C36.249 72.8082 36.2177 72.8391 36.2072 72.8597H36.1968L36.3743 71.0877L35.518 71.0052L35.1316 74.7554L35.9879 74.8378L36.1759 72.9936H36.1864C36.2073 73.0348 36.2177 73.0761 36.2386 73.1173C36.2595 73.1585 36.2804 73.1894 36.2908 73.21L37.3456 74.9614L38.3586 75.0644L37.0427 72.9627L38.6197 71.304L37.6693 71.2113Z" fill="#434C63"/>
<path d="M41.7422 71.2422L40.1131 73.6221C40.0504 73.7148 40.0086 73.7869 39.9669 73.8384C39.9355 73.8899 39.9042 73.9414 39.8833 73.9827H39.8729C39.8729 73.9311 39.8833 73.859 39.8833 73.7663C39.8833 73.6736 39.8833 73.5602 39.8833 73.4263L39.8207 71.2937L39.027 71.3143L39.1418 75.085L39.9982 75.0644L41.6587 72.6639C41.7213 72.5815 41.7631 72.4991 41.8049 72.4373C41.8467 72.3652 41.878 72.3136 41.8884 72.2724H41.8989C41.8989 72.3239 41.8884 72.4064 41.8884 72.4991C41.8884 72.5918 41.8884 72.7154 41.8884 72.8391L41.9511 75.0129L42.7448 74.9923L42.6404 71.2216L41.7422 71.2422Z" fill="#434C63"/>
<path d="M46.1702 70.6755L44.8961 73.2512C44.8544 73.3439 44.8126 73.4263 44.7917 73.4881C44.7708 73.5499 44.7499 73.6015 44.729 73.6427H44.7186C44.7186 73.5911 44.7082 73.519 44.6977 73.4263C44.6873 73.3336 44.6664 73.2203 44.6455 73.0966L44.28 70.9949L43.4967 71.1288L44.1442 74.8481L44.9901 74.7038L46.2956 72.087C46.3373 71.9943 46.3791 71.9118 46.4104 71.8397C46.4418 71.7676 46.4626 71.7058 46.4731 71.6646H46.4835C46.4835 71.7161 46.494 71.7985 46.5044 71.8913C46.5149 71.984 46.5358 72.0973 46.5566 72.2312L46.9326 74.3742L47.7159 74.2402L47.0684 70.521L46.1702 70.6755Z" fill="#434C63"/>
<path d="M45.1155 69.8307C44.7499 69.8925 44.5306 69.7586 44.4471 69.4289L43.9667 69.5114C44.0293 69.7998 44.1755 70.0059 44.3949 70.1501C44.6142 70.2943 44.8753 70.3356 45.1781 70.284C45.4705 70.2325 45.6898 70.1089 45.8674 69.8925C46.0345 69.6865 46.1076 69.4289 46.0867 69.1404L45.6063 69.2229C45.6063 69.3774 45.5645 69.5113 45.4705 69.6247C45.387 69.738 45.2617 69.8101 45.1155 69.8307Z" fill="#434C63"/>
<path d="M51.8514 70.5725C51.841 70.6652 51.841 70.7683 51.8306 70.8507C51.8306 70.9434 51.8201 71.0361 51.8201 71.1288C51.7888 71.0876 51.7574 71.0464 51.7261 71.0052C51.6948 70.964 51.6635 70.9331 51.6321 70.9022L50.2223 69.5938L49.3555 69.9131L51.6321 71.9015C51.6112 72.0252 51.5903 72.1282 51.559 72.2106C51.5277 72.293 51.4964 72.3755 51.4441 72.4373C51.4024 72.4991 51.3501 72.5506 51.2979 72.5815C51.2457 72.6227 51.1935 72.6536 51.1308 72.6742C50.9637 72.736 50.7862 72.7464 50.6087 72.7258L50.8489 73.3748C50.922 73.3748 51.0055 73.3645 51.0995 73.3439C51.1935 73.3233 51.3084 73.2924 51.4441 73.2409C51.6321 73.1688 51.7888 73.0863 51.9141 72.9833C52.0394 72.8803 52.1334 72.767 52.217 72.6227C52.2901 72.4888 52.3527 72.324 52.3945 72.1488C52.4363 71.9737 52.4676 71.7676 52.4885 71.541L52.7913 68.6459L51.9559 68.955L51.8514 70.5725Z" fill="#434C63"/>
<path d="M55.3604 67.3169L56.0601 68.6356L54.5354 69.4289L53.8253 68.0999L53.0733 68.5017L54.8591 71.8294L55.6111 71.4379L54.8487 70.0059L56.3734 69.2126L57.1358 70.6446L57.8982 70.2531L56.1123 66.9151L55.3604 67.3169Z" fill="#434C63"/>
<path d="M59.0574 64.8958L59.0678 67.7599C59.0678 67.8629 59.0678 67.9556 59.0678 68.0175C59.0678 68.0793 59.0783 68.1308 59.0783 68.1823L59.0678 68.1926C59.0469 68.1514 59.0052 68.0896 58.9529 68.0072C58.9007 67.9247 58.8381 67.832 58.765 67.729L57.5013 65.9982L56.8643 66.4618L59.0991 69.5113L59.7988 69.0168V66.1115C59.7988 66.0085 59.7989 65.9157 59.7884 65.8436C59.778 65.7612 59.778 65.6994 59.7675 65.6582L59.778 65.6479C59.8093 65.6994 59.8406 65.7612 59.9033 65.8436C59.9555 65.926 60.0286 66.0188 60.1017 66.1321L61.3862 67.8938L62.0233 67.4302L59.7884 64.3807L59.0574 64.8958Z" fill="#434C63"/>
<path d="M64.4357 63.7625C64.3522 63.6801 64.2582 63.608 64.1642 63.5668C64.0598 63.5152 63.9553 63.4946 63.8405 63.4946C63.7256 63.4946 63.6107 63.5153 63.4854 63.5565C63.3601 63.5977 63.2347 63.6698 63.1094 63.7625L63.099 63.7522C63.2347 63.5358 63.2974 63.3195 63.287 63.1238C63.2765 62.9177 63.2034 62.7426 63.0572 62.588C62.8692 62.3923 62.6395 62.3099 62.3679 62.3511C62.0964 62.3923 61.804 62.5571 61.4802 62.8559L60.4568 63.8037L63.0676 66.5545L64.1329 65.5655C64.2895 65.4212 64.4148 65.2667 64.5088 65.1121C64.6028 64.9576 64.6655 64.7928 64.6864 64.6382C64.7073 64.4837 64.7072 64.3292 64.6655 64.1849C64.6237 64.0201 64.5506 63.8861 64.4357 63.7625ZM62.1382 64.3395L61.4802 63.6492L61.7309 63.4225C61.8875 63.268 62.0337 63.1856 62.1486 63.1547C62.2635 63.1238 62.3784 63.1753 62.4932 63.2886C62.6186 63.4225 62.6708 63.5565 62.6499 63.7007C62.629 63.8449 62.5455 63.9892 62.3888 64.1231L62.1382 64.3395ZM63.6211 65.2358L63.287 65.5449L62.5455 64.7619L62.8483 64.4837C63.0363 64.3086 63.2034 64.2055 63.3601 64.1849C63.5167 64.1643 63.6525 64.2158 63.7882 64.3601C63.924 64.494 63.9658 64.6382 63.9344 64.7825C63.8927 64.9267 63.7882 65.0812 63.6211 65.2358Z" fill="#434C63"/>
<path d="M65.9814 62.7528L65.2399 62.1244L66.0962 61.1354L65.6158 60.7233L64.7595 61.7226L64.0389 61.1147L64.9788 60.033L64.4984 59.6312L63.005 61.3414L65.8978 63.8037L67.4539 62.0214L66.9839 61.6093L65.9814 62.7528Z" fill="#434C63"/>
<path d="M67.7045 59.4251C67.8403 59.2397 67.9343 59.0439 67.9969 58.8585C68.0596 58.673 68.0805 58.4876 68.0596 58.3125C68.0491 58.1373 67.9969 57.9725 67.9029 57.8282C67.8194 57.6737 67.6941 57.5501 67.5374 57.447C67.2241 57.2307 66.9004 57.1689 66.5871 57.2616C66.2738 57.3543 65.9709 57.6016 65.6889 58.0137L64.9266 59.0955L68.0596 61.2487L68.5504 60.5584L67.4434 59.8063L67.7045 59.4251ZM67.151 59.1779L66.963 59.4561L65.9187 58.7349L66.1276 58.4361C66.2738 58.2301 66.42 58.1167 66.5662 58.0652C66.7124 58.024 66.8795 58.0549 67.0466 58.1785C67.2345 58.3022 67.3285 58.4567 67.3494 58.6215C67.3599 58.7864 67.2972 58.9718 67.151 59.1779Z" fill="#434C63"/>
<path d="M70.5973 56.1592C70.5033 56.3344 70.3885 56.4786 70.2631 56.5816C70.1378 56.695 69.9916 56.7671 69.8454 56.8083C69.6888 56.8495 69.5321 56.8598 69.365 56.8392C69.1979 56.8186 69.0204 56.7568 68.8533 56.6641C68.6758 56.5713 68.5191 56.4477 68.4042 56.3137C68.2893 56.1798 68.2058 56.0356 68.164 55.8707C68.1223 55.7162 68.1118 55.5514 68.1327 55.3659C68.1536 55.1908 68.2162 55.0157 68.3207 54.8302C68.4878 54.5314 68.6966 54.3048 68.9682 54.1399L68.3311 53.8C68.1118 53.9854 67.9029 54.2532 67.715 54.6138C67.5583 54.892 67.4643 55.1702 67.4225 55.4483C67.3808 55.7265 67.4017 55.9944 67.4643 56.2416C67.5374 56.4889 67.6523 56.7259 67.8194 56.9319C67.9865 57.138 68.2058 57.3234 68.4773 57.4573C68.728 57.5913 68.9786 57.6737 69.2293 57.7046C69.4799 57.7355 69.7201 57.7149 69.9394 57.6428C70.1692 57.5707 70.378 57.447 70.5764 57.2822C70.7749 57.107 70.9524 56.8907 71.0986 56.6228C71.3284 56.2004 71.4537 55.8295 71.4746 55.4896L70.8689 55.1599C70.8689 55.4999 70.7749 55.8295 70.5973 56.1592Z" fill="#434C63"/>
<path d="M69.4903 50.7401L71.0777 53.1406C71.1404 53.2333 71.1822 53.3054 71.2239 53.357C71.2657 53.4085 71.2971 53.4497 71.3284 53.4909V53.5012C71.2866 53.4806 71.2239 53.4497 71.13 53.4085C71.0464 53.3673 70.942 53.3261 70.8166 53.2849L68.8011 52.5122L68.5191 53.2436L72.0803 54.6139L72.3936 53.8206L70.7958 51.3789C70.7436 51.2965 70.6913 51.214 70.6391 51.1522C70.5869 51.0904 70.5556 51.0389 70.5242 51.008V50.9977C70.5764 51.0286 70.6391 51.0595 70.7331 51.0904C70.8271 51.1316 70.9315 51.1728 71.0569 51.2243L73.1038 52.0073L73.3857 51.2758L69.8245 49.9056L69.4903 50.7401Z" fill="#434C63"/>
<path d="M70.848 48.5559L73.9183 49.3183L74.1272 48.5044L71.0568 47.7317L71.3388 46.6191L70.7122 46.4645L69.929 49.5141L70.5556 49.6686L70.848 48.5559Z" fill="#434C63"/>
<path d="M74.0541 45.6507L73.0828 45.5064L73.2813 44.2083L72.6547 44.1156L72.4563 45.4137L71.5268 45.2695L71.7461 43.8683L71.1195 43.7756L70.7749 46.0112L74.5554 46.5779L74.9104 44.2392L74.2839 44.1465L74.0541 45.6507Z" fill="#434C63"/>
<path d="M71.8714 42.3847L75.0358 42.529L75.0776 41.6842L71.9132 41.5399L71.9654 40.386L71.3179 40.3551L71.1613 43.4974L71.8088 43.5283L71.8714 42.3847Z" fill="#434C63"/>
<path d="M72.9262 38.2122C72.9262 38.7376 73.3648 39.1703 73.8975 39.1703C74.4301 39.1703 74.8687 38.7376 74.8687 38.2122C74.8687 37.6868 74.4301 37.254 73.8975 37.254C73.3648 37.254 72.9262 37.6765 72.9262 38.2122Z" fill="#434C63"/>
<path d="M44.6455 38.0782H42.5777V44.5276H44.6455V38.0782Z" fill="#434C63"/>
<path d="M47.7681 38.0782H45.7003V44.5276H47.7681V38.0782Z" fill="#434C63"/>
<path d="M50.8802 38.0782H48.8124V44.5276H50.8802V38.0782Z" fill="#434C63"/>
<path d="M53.9923 38.0782H51.9245V44.5276H53.9923V38.0782Z" fill="#434C63"/>
<path d="M29.8681 27.5593H27.4974V44.5792H29.8681V27.5593Z" fill="#434C63"/>
<path d="M33.6799 27.5593H31.3093V44.5792H33.6799V27.5593Z" fill="#434C63"/>
<path d="M37.4918 27.5593H35.1211V44.5792H37.4918V27.5593Z" fill="#434C63"/>
<path d="M42.9641 30.578C42.7553 30.6707 42.5255 30.7326 42.2749 30.7738V31.6392C42.4524 31.6186 42.6091 31.5979 42.7448 31.5567C42.8806 31.5155 43.0163 31.464 43.1417 31.3919V34.1839H44.3113V30.2174H43.6221C43.4028 30.3617 43.1834 30.4853 42.9641 30.578Z" fill="#434C63"/>
<path d="M47.4965 30.4544C47.2668 30.2998 47.0057 30.2277 46.7028 30.2277C46.4104 30.2277 46.1598 30.2895 45.9405 30.4029C45.7212 30.5162 45.5436 30.681 45.4287 30.8974C45.3139 31.1137 45.2512 31.361 45.2512 31.6495C45.2512 31.8761 45.293 32.0822 45.387 32.2676C45.481 32.4428 45.6063 32.587 45.7734 32.69C45.9405 32.7931 46.118 32.8446 46.3164 32.8446C46.6506 32.8446 46.9013 32.7313 47.0684 32.5149H47.0892C47.0892 32.8034 47.0161 33.03 46.8699 33.1742C46.7237 33.3185 46.5149 33.4009 46.2433 33.4009C46.1284 33.4009 45.9927 33.3803 45.8465 33.3391C45.7003 33.2979 45.5854 33.2567 45.5019 33.2052V34.0912C45.7629 34.1942 46.0554 34.2457 46.4 34.2457C46.9639 34.2457 47.4025 34.05 47.7263 33.6688C48.05 33.2876 48.2067 32.7518 48.2067 32.0719C48.2067 31.6907 48.1545 31.3713 48.0396 31.0931C47.9038 30.8253 47.7263 30.6089 47.4965 30.4544ZM46.943 31.9071C46.8908 31.9895 46.8073 32.041 46.6924 32.041C46.5984 32.041 46.5149 31.9998 46.4522 31.9173C46.3895 31.8349 46.3582 31.7216 46.3582 31.567C46.3582 31.4022 46.3895 31.2786 46.4522 31.2065C46.5149 31.1343 46.5984 31.0931 46.7028 31.0931C46.8073 31.0931 46.8804 31.1344 46.943 31.2271C47.0057 31.3198 47.037 31.4331 47.037 31.567C47.0266 31.7113 46.9952 31.8246 46.943 31.9071Z" fill="#434C63"/>
<path d="M50.9011 31.6186C50.5565 31.6186 50.2954 31.7319 50.1074 31.9482H50.0865C50.1074 31.6804 50.191 31.4743 50.3476 31.3095C50.5043 31.1446 50.7027 31.0622 50.9533 31.0622C51.204 31.0622 51.4128 31.1137 51.5904 31.2271V30.3204C51.4128 30.2586 51.1622 30.2174 50.8698 30.2174C50.4729 30.2174 50.1387 30.2998 49.8568 30.475C49.5748 30.6501 49.3555 30.9077 49.1988 31.2477C49.0422 31.5877 48.9586 31.9792 48.9586 32.4119C48.9586 32.9888 49.0944 33.4318 49.345 33.7512C49.6061 34.0706 49.9716 34.2251 50.452 34.2251C50.7236 34.2251 50.9742 34.1633 51.1935 34.0397C51.4128 33.916 51.5904 33.7512 51.7052 33.5348C51.8306 33.3185 51.8828 33.0815 51.8828 32.824C51.8828 32.4634 51.7888 32.1749 51.6112 31.9482C51.4546 31.7319 51.204 31.6186 50.9011 31.6186ZM50.7027 33.2361C50.64 33.3185 50.5565 33.37 50.452 33.37C50.358 33.37 50.2745 33.3288 50.2118 33.2361C50.1492 33.1433 50.1179 33.03 50.1179 32.8961C50.1179 32.7519 50.1492 32.6385 50.2014 32.5458C50.2641 32.4634 50.3476 32.4119 50.452 32.4119C50.5669 32.4119 50.6505 32.4531 50.7027 32.5355C50.7549 32.6179 50.7862 32.7312 50.7862 32.8755C50.7967 33.03 50.7653 33.1536 50.7027 33.2361Z" fill="#434C63"/>
<path d="M54.1072 31.7216C54.0132 31.7216 53.9192 31.7216 53.8044 31.7422L53.8461 31.1962H55.162V30.2998H52.9376L52.7914 32.6282C53.0002 32.587 53.2195 32.5561 53.4597 32.5561C53.9401 32.5561 54.1803 32.7003 54.1803 32.9888C54.1803 33.1227 54.1281 33.2258 54.0237 33.2979C53.9192 33.37 53.7626 33.4112 53.5642 33.4112C53.2613 33.4112 52.9689 33.3391 52.6974 33.1949V34.0912C52.8227 34.1427 52.9898 34.1736 53.1777 34.2045C53.3762 34.2354 53.5642 34.2457 53.7417 34.2457C54.0655 34.2457 54.3474 34.1839 54.5876 34.0706C54.8278 33.9572 55.0158 33.7924 55.1411 33.5761C55.2664 33.37 55.3291 33.133 55.3291 32.8652C55.3291 32.5149 55.2247 32.2367 55.0053 32.0307C54.7965 31.8246 54.4936 31.7216 54.1072 31.7216Z" fill="#434C63"/>
<path d="M19.832 52.3782L39.1523 52.337L39.7998 53.0685H41.4081L42.0556 52.337L61.2923 52.4297L61.3027 33.1846L59.0574 33.1021L59.0887 27.4048L40.9486 27.4769V23.871H39.027L36.9174 22.3978H33.1891V23.4898H32.009V22.4081H28.2181L26.1294 23.9019H24.1973V27.7654H22.0251L21.9938 33.0094L19.8216 33.1742L19.832 52.3782ZM25.3566 25.0352H26.5158L28.6045 23.5413H30.8707V24.6231H34.3483V23.5413H36.5623L38.6719 25.0146H39.8102L39.7998 44.5895H40.9486V36.5432L55.7051 36.5741V46.4748H25.3566V25.0352ZM23.1739 28.8987H24.1973V47.5978H56.8538V35.4408L40.9486 35.4099V28.6205L57.9295 28.5484L57.8146 48.8444H23.059L23.1739 28.8987ZM21.9938 34.1427L21.8998 49.9777H58.953L59.047 34.2457L60.1435 34.2869L60.1331 51.2964L41.5229 51.2037L40.8754 51.9352H40.3219L39.6745 51.2037L20.9808 51.2449L20.9703 34.2148L21.9938 34.1427Z" fill="#434C63"/>
<path d="M41.8571 57.7458L48.8855 57.7561V56.5198L41.4707 56.5095L40.4786 57.1895L39.4864 56.5095H32.0925V57.7458H39.1L40.489 58.6937L41.8571 57.7458Z" fill="#434C63"/>
</svg>
