<svg width="24" height="24" viewBox="0 0 24 24" fill="none" xmlns="http://www.w3.org/2000/svg">
<path d="M4 14.8861L4.85 14.8861L4 14.8861ZM6.73291 18.0844L6.84966 17.2425L6.84966 17.2425L6.73291 18.0844ZM16.9193 18.0844L16.8025 17.2425L16.8025 17.2425L16.9193 18.0844ZM6.58897 8.08696C6.58897 5.19466 8.93363 2.85 11.8259 2.85V1.15C7.99475 1.15 4.88897 4.25578 4.88897 8.08696H6.58897ZM6.58897 10.1807V8.08696H4.88897V10.1807H6.58897ZM4.85 14.8861C4.85 14.4232 4.97656 13.9924 5.19648 13.6236L3.73638 12.7529C3.36382 13.3777 3.15 14.1082 3.15 14.8861L4.85 14.8861ZM6.84966 17.2425C5.70177 17.0833 4.85 16.0847 4.85 14.8861L3.15 14.8861C3.15 16.8933 4.58864 18.6452 6.61616 18.9264L6.84966 17.2425ZM11.8261 17.6729C10.3414 17.6729 8.41944 17.4601 6.84966 17.2425L6.61616 18.9264C8.19975 19.1459 10.2181 19.3729 11.8261 19.3729V17.6729ZM16.8025 17.2425C15.2327 17.4601 13.3108 17.6729 11.8261 17.6729V19.3729C13.4341 19.3729 15.4524 19.1459 17.036 18.9264L16.8025 17.2425ZM18.8022 14.8861C18.8022 16.0847 17.9504 17.0833 16.8025 17.2425L17.036 18.9264C19.0635 18.6452 20.5022 16.8933 20.5022 14.8861H18.8022ZM18.4556 13.6235C18.6756 13.9923 18.8022 14.4231 18.8022 14.8861H20.5022C20.5022 14.1082 20.2883 13.3776 19.9157 12.7528L18.4556 13.6235ZM17.0629 8.08696V10.1803H18.7629V8.08696H17.0629ZM11.8259 2.85C14.7182 2.85 17.0629 5.19467 17.0629 8.08696H18.7629C18.7629 4.25578 15.6571 1.15 11.8259 1.15V2.85ZM19.9157 12.7528C19.6032 12.2287 19.3276 11.8219 19.0984 11.3628C18.8804 10.926 18.7629 10.5461 18.7629 10.1803H17.0629C17.0629 10.9149 17.3 11.5663 17.5774 12.1221C17.8437 12.6556 18.2045 13.2025 18.4556 13.6235L19.9157 12.7528ZM4.88897 10.1807C4.88897 10.5465 4.77149 10.9264 4.5535 11.3631C4.32437 11.8222 4.04886 12.2289 3.73638 12.7529L5.19648 13.6236C5.44754 13.2026 5.8083 12.6557 6.07455 12.1223C6.35194 11.5666 6.58897 10.9152 6.58897 10.1807H4.88897Z" fill="#434C63"/>
<path d="M14 20.834C13.5326 21.5369 12.7335 22.0002 11.8261 22.0002C10.9187 22.0002 10.1195 21.5369 9.65218 20.834" stroke="#434C63" stroke-width="1.5" stroke-linecap="round"/>
</svg>
